<?xml version="1.0" encoding="UTF-8" standalone="no"?>
<!DOCTYPE svg PUBLIC "-//W3C//DTD SVG 20010904//EN"
              "http://www.w3.org/TR/2001/REC-SVG-20010904/DTD/svg10.dtd">

<svg xmlns="http://www.w3.org/2000/svg"
     width="105.82mm" height="105.82mm"
     viewBox="0 0 300 300">
  <path id="Selection"
        fill="none" stroke="black" stroke-width="1"
        d="M 0.00,0.00
           C 0.00,0.00 300.00,0.00 300.00,0.00
             300.00,0.00 300.00,300.00 300.00,300.00
             300.00,300.00 0.00,300.00 0.00,300.00
             0.00,300.00 0.00,0.00 0.00,0.00 Z
           M 122.00,68.00
           C 121.92,59.34 117.74,34.30 113.73,27.02
             110.73,21.57 102.86,17.98 97.04,21.02
             91.77,23.77 83.84,37.56 80.60,43.00
             79.12,45.48 76.29,50.59 73.70,51.81
             70.95,53.10 64.14,50.81 61.00,50.28
             49.38,48.34 37.79,45.17 26.00,46.87
             17.38,48.11 11.56,50.10 12.04,60.00
             12.25,64.24 13.61,67.18 15.28,71.00
             20.60,83.12 28.58,89.51 41.00,93.84
             41.00,93.84 63.71,103.12 63.71,103.12
             65.22,104.21 65.15,104.57 66.00,106.00
             70.32,105.27 73.96,104.39 76.35,109.11
             79.80,115.92 77.77,132.34 80.22,140.00
             83.46,150.12 96.14,160.55 95.22,172.00
             94.71,178.45 91.59,179.96 93.00,187.00
             93.00,187.00 95.00,187.00 95.00,187.00
             98.17,176.22 96.96,177.62 103.00,167.00
             106.18,175.83 110.94,183.74 115.26,192.00
             116.77,194.88 117.55,198.44 119.51,200.87
             121.64,203.52 125.25,205.10 128.00,207.34
             128.00,207.34 139.28,218.20 139.28,218.20
             139.28,218.20 146.47,222.56 146.47,222.56
             148.51,224.37 152.99,232.18 154.88,235.00
             154.88,235.00 162.53,245.41 162.53,245.41
             166.31,249.17 174.52,252.59 172.06,259.00
             170.97,261.83 162.12,274.64 159.70,276.25
             158.51,277.05 152.02,278.82 150.42,279.04
             143.46,280.00 134.31,274.36 130.00,282.00
             130.00,282.00 134.00,281.00 134.00,281.00
             134.00,281.00 145.00,285.00 145.00,285.00
             145.00,285.00 139.00,291.00 139.00,291.00
             144.12,290.98 161.90,289.20 165.78,286.83
             167.60,285.72 167.97,284.70 169.00,283.00
             173.35,285.58 173.99,286.06 179.00,285.00
             177.62,283.23 172.97,278.87 172.63,277.54
             172.33,276.38 172.81,275.09 173.42,274.11
             175.94,270.02 180.33,271.79 184.00,273.00
             184.00,273.00 179.00,278.00 179.00,278.00
             187.03,277.55 197.88,276.78 205.00,273.00
             205.00,273.00 210.00,277.00 210.00,277.00
             210.00,277.00 206.19,264.00 206.19,264.00
             206.19,264.00 210.00,242.00 210.00,242.00
             213.60,242.55 217.56,242.37 221.00,241.00
             228.46,238.03 239.58,226.49 242.64,219.00
             245.05,213.09 241.89,210.91 244.61,207.22
             246.62,204.51 250.96,203.81 254.00,202.00
             254.00,202.00 252.00,201.00 252.00,201.00
             252.00,201.00 256.79,199.83 256.79,199.83
             256.79,199.83 265.10,188.96 265.10,188.96
             265.10,188.96 265.10,186.00 265.10,186.00
             265.10,186.00 269.00,182.00 269.00,182.00
             269.00,182.00 268.00,182.00 268.00,182.00
             268.00,182.00 266.00,180.00 266.00,180.00
             266.00,180.00 276.00,176.00 276.00,176.00
             269.07,169.41 265.56,180.29 253.00,177.00
             253.00,177.00 278.00,169.00 278.00,169.00
             278.00,169.00 277.00,166.00 277.00,166.00
             277.00,166.00 285.00,165.00 285.00,165.00
             287.31,156.79 293.64,154.45 285.00,149.00
             287.93,148.21 287.95,147.80 289.00,145.00
             289.00,145.00 275.00,142.00 275.00,142.00
             275.00,142.00 276.00,139.00 276.00,139.00
             276.00,139.00 272.00,138.00 272.00,138.00
             272.00,138.00 273.00,135.00 273.00,135.00
             259.71,135.13 258.60,141.30 251.00,142.53
             251.00,142.53 245.00,142.53 245.00,142.53
             245.00,142.53 235.00,144.52 235.00,144.52
             230.85,145.40 228.55,147.27 224.00,146.78
             224.00,146.78 218.00,145.46 218.00,145.46
             213.60,144.94 210.44,147.21 197.00,144.54
             197.00,144.54 181.00,139.00 181.00,139.00
             181.00,139.00 163.00,136.00 163.00,136.00
             163.00,136.00 163.00,138.00 163.00,138.00
             163.00,138.00 147.00,130.89 147.00,130.89
             147.00,130.89 132.00,116.00 132.00,116.00
             146.87,116.00 163.05,118.61 172.96,104.98
             175.20,101.90 178.57,97.01 177.22,93.04
             175.62,88.34 168.23,84.72 164.00,82.70
             155.83,78.82 130.20,68.74 122.00,68.00 Z" />
</svg>
